<?xml version="1.0" encoding="utf-8"?>
<!-- Generator: Adobe Illustrator 24.2.1, SVG Export Plug-In . SVG Version: 6.00 Build 0)  -->
<svg version="1.1" xmlns="http://www.w3.org/2000/svg" xmlns:xlink="http://www.w3.org/1999/xlink" x="0px" y="0px"
	 viewBox="0 0 693 519" style="enable-background:new 0 0 693 519;" xml:space="preserve">
<style type="text/css">
	.st0{fill:#969696;}
	.st1{fill:#6AC9CD;}
	.st2{fill:#4EC3C7;}
	.st3{fill:#81D0D3;}
	.st4{fill:#97D7D9;}
	.st5{fill:#C0E5E7;}
	.st6{fill:#ACDEE0;}
	.st7{fill:#D4EDED;}
</style>
<g id="Layer_1">
	<g>
		<polygon class="st0" points="0,233 45,299 10,335 53,430 125,460 201,433 243,465 209,519 323,464 338,418 423,391 497,421 
			550,376 646,346 693,255 621,159 641,84 536,11 450,48 347,0 243,70 195,39 83,61 80,108 10,146 		"/>
		<polygon class="st1" points="125,460 149,386 53,430 		"/>
		<polygon class="st2" points="0,233 135,246 45,299 		"/>
		<polygon class="st3" points="10,335 149,386 53,430 		"/>
		<polygon class="st4" points="149,386 135,246 45,299 10,335 		"/>
		<polygon class="st1" points="10,146 135,246 0,233 		"/>
		<polygon class="st3" points="79,108 211,168 135,246 10,146 		"/>
		<polygon class="st2" points="83,61 211,168 79,108 		"/>
		<polygon class="st3" points="211,168 195,39 83,61 		"/>
		<polygon class="st2" points="243,70 211,168 195,39 		"/>
		<polygon class="st5" points="135,246 264,278 320,187 211,168 		"/>
		<polygon class="st4" points="320,187 346,0 243,70 211,168 		"/>
		<polygon class="st2" points="149,386 201,433 125,460 		"/>
		<polygon class="st6" points="201,433 338,418 243,465 		"/>
		<polygon class="st1" points="243,465 323,465 338,418 		"/>
		<polygon class="st2" points="209,519 323,465 243,465 		"/>
		<polygon class="st6" points="149,386 264,278 135,246 		"/>
		<polygon class="st5" points="264,278 201,433 149,386 		"/>
		<polygon class="st2" points="264,278 338,418 201,433 		"/>
		<polygon class="st3" points="320,187 338,418 264,278 		"/>
		<polygon class="st2" points="320,187 450,48 346,0 		"/>
		<polygon class="st3" points="320,187 442,172 450,48 		"/>
		<polygon class="st6" points="497,244 497,421 550,376 		"/>
		<polygon class="st7" points="497,244 423,391 497,421 		"/>
		<polygon class="st4" points="497,244 442,172 423,391 		"/>
		<polygon class="st2" points="423,391 320,187 338,418 		"/>
		<polygon class="st1" points="320,187 442,172 423,391 		"/>
		<polygon class="st4" points="442,172 536,11 450,48 		"/>
		<polygon class="st2" points="442,172 641,84 536,11 		"/>
		<polygon class="st4" points="442,172 621,159 641,84 		"/>
		<polygon class="st6" points="497,244 621,159 442,172 		"/>
		<polygon class="st2" points="497,244 693,255 621,159 		"/>
		<polygon class="st4" points="497,244 646,346 550,376 		"/>
		<polygon class="st1" points="497,244 646,346 693,255 		"/>
	</g>
</g>
<g id="Layer_2">
</g>
</svg>
